<?xml version="1.0" encoding="UTF-8"?>
<svg width="165px" height="77px" viewBox="0 0 165 77" version="1.1" xmlns="http://www.w3.org/2000/svg" xmlns:xlink="http://www.w3.org/1999/xlink">
    <!-- Generator: Sketch 51.2 (57519) - http://www.bohemiancoding.com/sketch -->
    <title>周游</title>
    <desc>Created with Sketch.</desc>
    <defs></defs>
    <g id="jimzenn.com" stroke="none" stroke-width="1" fill="none" fill-rule="evenodd">
        <g id="周遊" fill="#FFFFFF">
            <path d="M26.622,55.767 C26.4479991,53.562989 26.1870017,51.0545141 25.839,48.2415 C25.4909983,45.4284859 25.0560026,43.0940093 24.534,41.238 L31.842,43.239 L45.153,41.76 C46.2550055,41.4119983 47.0234978,41.0785016 47.4585,40.7595 C47.8935022,40.4404984 48.6909942,39.5560072 49.851,38.106 L57.072,42.804 C56.1439954,43.4420032 55.5640012,43.9059986 55.332,44.196 C55.0999988,44.4860014 54.8970009,44.9789965 54.723,45.675 C54.5489991,46.6030046 54.2880017,48.0819899 53.94,50.112 C53.6499986,51.5620072 53.3890012,52.8959939 53.157,54.114 L55.767,57.246 C52.4609835,57.4200009 48.8360197,57.6519985 44.892,57.942 C41.1799814,58.2320014 37.7000162,58.5219986 34.452,58.812 C34.6260009,60.7840099 34.7419997,62.0889968 34.8,62.727 L26.448,61.335 C26.5640006,60.6969968 26.6509997,59.8995048 26.709,58.9425 C26.7670003,57.9854952 26.7380006,56.9270058 26.622,55.767 Z M46.98,44.718 C45.7619939,44.8920009 41.2380392,45.4139956 33.408,46.284 C33.5820009,48.2560099 33.8139986,50.7789846 34.104,53.853 C34.1620003,54.4330029 34.191,54.9839974 34.191,55.506 C37.5550168,55.2159985 40.8029843,54.9260015 43.935,54.636 C44.5150029,54.5779997 45.0949971,54.549 45.675,54.549 C45.9650015,52.5769901 46.3999971,49.3000229 46.98,44.718 Z M109.538745,20.1984152 C110.660884,20.1008378 111.61225,20.0154589 112.392869,19.9422759 C113.173488,19.8690929 114.588338,19.686138 116.637463,19.3934059 C118.686588,19.1006738 120.333181,18.868931 121.577293,18.6981706 C122.821404,18.5274102 123.894739,18.3444554 124.79733,18.1493006 C125.699921,17.9541459 126.773256,17.7224031 128.017367,17.4540653 C129.261479,17.1857275 130.273829,16.7588329 131.054448,16.1733687 L134.274485,19.9056846 C134.664795,19.1250656 135.055098,18.3200643 135.445408,17.4906567 C136.957857,14.2706033 138.275132,10.9530224 139.397272,7.53781438 C140.616989,3.78108551 141.30002,1.26850585 141.446386,0 L148.325557,4.53732516 C147.154628,5.85461969 145.520232,8.48916925 143.422318,12.4410529 C142.885642,13.4168266 142.348975,14.3681917 141.812299,15.2951767 C144.837198,14.8560786 147.032656,14.5389569 148.398739,14.3438021 C150.155132,14.05107 151.508998,13.7827362 152.460377,13.5387928 C153.411756,13.2948494 154.424106,12.8801518 155.497458,12.2946875 L159.010225,16.1733687 C158.668705,16.1733687 157.924688,16.1977627 156.778154,16.2465514 C155.63162,16.2953401 153.765481,16.4782949 151.17968,16.7954214 C148.59388,17.1125478 145.373875,17.5882304 141.519569,18.2224833 L140.495011,17.2711087 C139.714392,18.4908258 138.884997,19.6861307 138.006801,20.8570592 C136.591929,22.7110293 135.177078,24.2966378 133.762206,25.6139323 C134.396459,25.5651437 135.055097,25.4919617 135.738138,25.3943844 C136.957855,25.2480183 138.933768,25.0040785 141.665934,24.6625577 C144.398101,24.3210369 146.14227,24.0405062 146.898495,23.8209571 C147.654719,23.601408 148.435326,23.3208773 149.24034,22.9793564 C150.045353,22.6378356 151.179673,21.9304103 152.643334,20.8570592 L158.424764,26.6384896 C156.912315,26.9800104 155.680419,27.3703141 154.72904,27.8094123 C153.77766,28.2485104 152.496976,29.0291177 150.88695,30.1512575 C149.862387,30.9318765 148.496325,31.9320296 146.788721,33.1517467 C147.032664,34.0787318 147.276604,35.1276728 147.520547,36.2986013 C147.666913,36.8840655 147.788883,37.8842186 147.886461,39.2990905 C148.569502,39.2015131 149.203746,39.1039372 149.78921,39.0063598 C152.814108,38.5672616 154.802218,38.189155 155.753597,37.8720285 C156.704976,37.5549021 157.522175,37.1524014 158.205216,36.6645146 L161.864349,41.4945704 L158.351581,41.4945704 C157.180653,41.4945704 154.741255,41.6897222 151.033315,42.0800317 C150.057541,42.1776091 149.106176,42.275185 148.179191,42.3727624 C148.22798,43.2509587 148.276768,44.2023238 148.325557,45.2268863 C148.5695,49.9593888 148.435333,54.130759 147.923052,57.7411218 C147.410771,61.3514846 145.447055,64.132398 142.031847,66.0839454 C139.68999,63.5957224 135.88453,60.6928391 130.615352,57.3752084 L131.273996,56.0579205 L141.226838,57.2288431 C141.714725,56.5458015 142.031847,54.6674653 142.178213,51.593778 C142.373367,48.5688794 142.373367,45.7147841 142.178213,43.0314063 L141.00729,43.1777717 C137.982392,43.5680812 136.079661,43.8608089 135.299042,44.0559636 C134.518423,44.2511184 133.737816,44.4950582 132.957197,44.7877903 L130.542169,42.0800317 L129.73716,46.1050782 C128.956541,50.0081731 128.224722,52.6671167 127.54168,54.0819886 C126.858638,55.4968605 126.078031,56.7043624 125.199835,57.7045304 C124.321638,58.7046985 122.955576,59.6682606 121.101606,60.5952457 C119.930677,58.6924869 117.662037,56.2286952 114.295618,53.2037966 C111.514663,57.6435671 111.065501,58.1315037 108.180927,60.9035921 L107.010004,59.9522174 C109.74217,55.512447 110.490542,53.8409334 112.274433,47.8294768 C114.058324,41.8180203 116.125177,35.2740813 117.588838,27.8094123 C117.979147,25.8578648 118.271875,24.1990743 118.46703,22.8329911 C118.46703,22.5890477 118.491424,22.3451079 118.540212,22.1011645 C118.345058,22.1499532 118.1743,22.1987411 118.027934,22.2475298 C116.66185,22.4426846 115.6495,22.6256394 114.990853,22.7963998 C114.332206,22.9671602 113.515008,23.174509 112.539234,23.4184524 L109.538745,20.1984152 Z M144.007779,32.4931027 L147.374182,26.7116723 C142.105004,27.4435026 139.080151,27.8825942 138.299532,28.0289603 C137.518913,28.1753263 136.640729,28.3948721 135.664956,28.6876042 L132.957197,26.345759 C132.615676,26.6384911 132.274161,26.9068249 131.93264,27.1507683 L130.542169,26.345759 C131.810675,24.4430002 133.00598,22.3939061 134.12812,20.1984152 C133.591444,20.1984152 132.810837,20.2472032 131.786274,20.3447805 C130.566557,20.4423579 129.444434,20.5399338 128.419872,20.6375112 C126.712268,20.8814546 124.88272,21.1497884 122.931172,21.4425205 C122.540863,21.4913092 122.174953,21.5644911 121.833432,21.6620685 L125.273017,23.7111831 C124.882708,24.9309002 124.553389,25.8944624 124.285051,26.6018983 C124.016714,27.3093343 123.784971,28.0777445 123.589816,28.9071522 C123.44345,29.3950391 123.32148,29.8829186 123.223903,30.3708055 C124.882718,30.0780734 125.785295,29.8829216 125.931661,29.7853442 C126.224393,29.5901894 126.529318,29.3340527 126.846445,29.0169262 C127.163571,28.6997997 127.688042,28.1509353 128.419872,27.3703163 L133.981754,30.9562668 C133.249924,31.5905197 132.749848,32.0905963 132.48151,32.4565114 C132.213172,32.8224266 132.030217,33.3468971 131.93264,34.0299387 C131.54233,36.4205843 131.152027,38.7868001 130.761717,41.1286571 C131.591125,41.1286571 132.396126,41.1042631 133.176745,41.0554744 C134.347674,40.957897 136.665101,40.7139573 140.129098,40.3236478 L141.958665,40.1040998 C141.714721,38.4452844 141.421994,37.0548277 141.080473,35.9326879 C140.592586,34.2738726 140.00713,32.78584 139.324089,31.4685455 L144.007779,32.4931027 Z M115.100627,51.7401433 L121.321154,53.4233446 C122.052984,52.740303 122.870182,50.4228751 123.772773,46.4709915 C124.675363,42.5191079 125.41938,37.8842522 126.004844,32.5662854 L122.492076,33.0785641 C120.686895,39.7626141 118.467043,45.5439867 115.832454,50.4228554 L115.100627,51.7401433 Z M103.536764,39.8123716 C103.0716,41.382298 102.853558,42.6324058 102.882631,43.5627325 C102.911704,44.4930593 103.536758,45.946673 104.757811,47.9236173 C106.56032,51.06347 107.345271,54.0579143 107.112689,56.9070399 C106.996398,58.5932571 106.821965,60.2213045 106.589383,61.7912308 C112.34578,62.8959938 117.491572,63.8263066 122.026915,64.5821971 C127.027421,65.396233 131.228365,66.0212869 134.629872,66.4573775 C138.031379,66.8934682 140.40077,67.1841909 141.738114,67.3295545 C143.075459,67.474918 145.837325,67.6638878 150.023795,67.8964695 C154.210266,68.1290512 159.036263,68.3616294 164.501933,68.5942111 L164.065844,71.0363065 C160.984137,72.0247787 157.989693,72.9550915 155.082422,73.8272728 C152.175151,74.6994541 150.052875,75.3535803 148.71553,75.7896709 C147.378185,76.2257616 146.404264,76.4728759 145.793737,76.5310213 C145.18321,76.5891668 143.060934,76.1385465 139.426845,75.1791471 C135.792757,74.2197476 131.926144,73.1586096 127.826892,71.9957012 C123.72764,70.8327928 119.715666,69.7716547 115.79085,68.8122553 C111.866034,67.8528559 108.159319,66.9661515 104.670594,66.1521156 C101.065578,65.3962251 97.9693805,65.1927192 95.3819092,65.5415917 C92.794438,65.8904643 90.5122645,66.4428375 88.5353202,67.1987279 L84,61.4423601 C90.22156,60.5120333 96.0069426,60.3666719 101.356321,61.0062716 C101.181885,59.1456181 100.891162,57.4884985 100.484144,56.0348629 C99.9608356,53.9416278 98.7398001,51.4995567 96.8210012,48.7085765 C95.832529,47.3130864 95.2510836,45.9757618 95.0766473,44.6965626 C94.902211,43.4173633 95.0766447,41.6148823 95.5999535,39.2890655 C95.7162443,38.7076112 95.9342864,37.8790514 96.2540862,36.8033611 C96.573886,35.7276709 96.9082172,34.5502437 97.2570897,33.2710445 L93.5939465,34.0560037 C92.7217652,34.1722946 91.9222776,34.3321921 91.1954599,34.5357011 C90.4686421,34.73921 89.6982268,34.9281798 88.8841909,35.1026161 L84.9593946,31.7883437 C85.831576,31.7301982 86.8054972,31.6284453 87.8811874,31.4830817 C88.9568777,31.3377182 89.9307989,31.2068929 90.8029802,31.0906021 L95.5127358,30.2184252 C96.5593534,30.0439889 97.4460577,29.6951216 98.1728755,29.1718128 C98.8996932,28.648504 99.7282531,27.8635526 100.65858,26.816935 L108.508172,32.4860852 C107.752282,33.0675394 107.069083,33.6344488 106.458557,34.1868303 C105.84803,34.7392118 105.397409,35.393338 105.106682,36.1492284 L103.536764,39.8123716 Z M94.1172527,5.01251122 C101.676157,8.79196358 106.647516,11.8445524 109.031479,14.1703692 C107.287116,18.7057121 105.629996,21.7583009 104.06007,23.3282272 C99.4084362,15.7111771 95.6581128,10.1002281 92.8089872,6.49521204 L94.1172527,5.01251122 Z M118.247482,2.41502791 C124.6388,5.04961698 128.639412,7.00113516 130.249439,8.26964101 C129.371242,12.0751586 128.175937,14.7341021 126.663488,16.2465514 C123.053125,10.8797959 119.857514,6.75721369 117.076559,3.87868118 L118.247482,2.41502791 Z M13.833,25.926 C13.8910003,23.6639887 13.9344999,20.6045193 13.9635,16.7475 C13.9925001,12.8904807 13.7170029,8.58402378 13.137,3.828 L22.359,7.569 C40.4550905,5.77099101 51.7649774,4.64000232 56.289,4.176 C57.1590044,4.05999942 57.9564964,3.81350189 58.6815,3.4365 C59.4065036,3.05949811 60.4939928,1.91400957 61.944,0 L70.992,5.568 C69.7739939,6.49600464 69.0200015,7.20649753 68.73,7.6995 C68.4399986,8.19250246 68.295,8.84499594 68.295,9.657 C68.2369997,13.3690186 68.2224999,18.1684706 68.2515,24.0555 C68.2805001,29.9425294 68.4109988,36.2499664 68.643,42.978 L69.165,58.116 C69.2810006,61.4800168 69.3100003,64.1479901 69.252,66.12 C69.1939997,66.9320041 69.063501,67.7294961 68.8605,68.5125 C68.657499,69.2955039 68.1790038,70.2959939 67.425,71.514 C66.7289965,72.5580052 66.0475033,73.4424964 65.3805,74.1675 C64.7134967,74.8925036 64.177002,75.4289983 63.771,75.777 C59.9429809,72.8189852 53.9690406,69.6000174 45.849,66.12 L46.632,64.032 L60.726,64.815 C61.0740017,63.1909919 61.2190003,60.3200206 61.161,56.202 C61.1029997,52.0839794 60.9580012,46.6175341 60.726,39.8025 C60.4939988,32.9874659 60.2910009,26.781528 60.117,21.1845 C59.9429991,15.587472 59.7690009,11.2520154 59.595,8.178 C50.9529568,8.81600319 43.2970334,9.45399681 36.627,10.092 L44.979,13.137 C44.8049991,14.2390055 44.6745004,15.2829951 44.5875,16.269 C44.5004996,17.2550049 44.457,18.2409951 44.457,19.227 C46.7770116,18.9949988 48.5314941,18.7340015 49.7205,18.444 C50.9095059,18.1539985 51.9389957,17.806002 52.809,17.4 L56.115,21.315 C55.5929974,21.3730003 54.2155112,21.4744993 51.9825,21.6195 C49.7494888,21.7645007 47.9080073,21.9239991 46.458,22.098 C45.8199968,22.2140006 45.1530035,22.3299994 44.457,22.446 C44.3989997,24.5340104 44.3410003,27.5209806 44.283,31.407 C45.7330073,31.2909994 47.2409922,31.1460009 48.807,30.972 C49.3870029,30.9139997 50.3874929,30.7545013 51.8085,30.4935 C53.2295071,30.2324987 54.6069933,29.7540035 55.941,29.058 L59.943,33.582 C59.3049968,33.582 57.7100128,33.6544993 55.158,33.7995 C52.6059872,33.9445007 48.7200261,34.2634975 43.5,34.7565 C38.2799739,35.2495025 34.5970107,35.6119988 32.451,35.844 C32.044998,35.844 31.1170073,35.9599988 29.667,36.192 C28.2169928,36.4240012 27.0570044,36.6269991 26.187,36.801 L22.011,33.321 C22.9970049,33.2629997 24.2149928,33.2050003 25.665,33.147 C27.1150073,33.0889997 28.5939925,32.9730009 30.102,32.799 C32.306011,32.5669988 34.5389887,32.3350012 36.801,32.103 L36.801,23.49 L33.843,23.838 C33.5529986,23.8960003 32.7265068,24.0119991 31.3635,24.186 C30.0004932,24.3600009 28.9710035,24.5339991 28.275,24.708 L24.186,21.576 L27.84,21.315 C29.4640081,21.1989994 30.8559942,21.0540009 32.016,20.88 L36.801,20.271 L36.801,17.226 C36.801,16.0079939 36.7430006,14.8480055 36.627,13.746 C36.5689997,12.7019948 36.4530009,11.484007 36.279,10.092 C31.1169742,10.6140026 26.5640197,11.1069977 22.62,11.571 C22.62,13.8910116 22.5910003,16.3559869 22.533,18.966 C22.4169994,23.0840206 22.2720009,26.0999904 22.098,28.014 C21.6339977,38.1060505 19.8940151,47.0814607 16.878,54.9405 C13.8619849,62.7995393 8.90303451,69.3099742 2.001,74.472 L0,73.515 C5.62602813,65.3369591 9.32349116,57.4345381 11.0925,49.8075 C12.8615088,42.1804619 13.7749997,34.2200415 13.833,25.926 Z" id="周游"></path>
        </g>
    </g>
</svg>