<?xml version="1.0" encoding="UTF-8"?>
<svg width="24px" height="24px" viewBox="0 0 24 24" version="1.1" xmlns="http://www.w3.org/2000/svg" xmlns:xlink="http://www.w3.org/1999/xlink">
    <!-- Generator: Sketch 51.1 (57501) - http://www.bohemiancoding.com/sketch -->
    <title>icon-calendar</title>
    <desc>Created with Sketch.</desc>
    <defs></defs>
    <g id="icon-calendar" stroke="none" stroke-width="1" fill="none" fill-rule="evenodd">
        <rect id="shape" fill-rule="nonzero" x="0" y="0" width="24" height="24"></rect>
        <path d="M19.2723384,9.41628363 L17.9367772,9.41628363 L17.9367772,8.04691153 L19.2699773,8.04912136 L19.2699773,6.66666027 L20.6668,6.66666027 L20.6668,8.04912136 L22,8.04691153 L22,9.41628363 L20.6643959,9.41628363 L20.6643959,10.8060117 L19.2723384,10.8060117 L19.2723384,9.41628363 Z M5.61909087,10.8461286 L6.99753942,10.8461286 L6.99753942,12.210656 L5.61909087,12.210656 L5.61909087,10.8461286 Z M8.37598796,10.8461286 L9.75443651,10.8461286 L9.75443651,12.210656 L8.37598796,12.210656 L8.37598796,10.8461286 Z M11.132928,10.8461286 L12.5113765,10.8461286 L12.5113765,12.210656 L11.132928,12.210656 L11.132928,10.8461286 Z M13.889868,10.8461286 L15.2683165,10.8461286 L15.2683165,12.210656 L13.889868,12.210656 L13.889868,10.8461286 Z M16.646808,10.8461286 L18.0252566,10.8461286 L18.0252566,12.210656 L16.646808,12.210656 L16.646808,10.8461286 Z M5.61909087,13.575226 L6.99753942,13.575226 L6.99753942,14.9397535 L5.61909087,14.9397535 L5.61909087,13.575226 Z M8.37598796,13.575226 L9.75443651,13.575226 L9.75443651,14.9397535 L8.37598796,14.9397535 L8.37598796,13.575226 Z M11.132928,13.575226 L12.5113765,13.575226 L12.5113765,14.9397535 L11.132928,14.9397535 L11.132928,13.575226 Z M13.889868,13.575226 L15.2683165,13.575226 L15.2683165,14.9397535 L13.889868,14.9397535 L13.889868,13.575226 Z M5.61909087,16.3043234 L6.99753942,16.3043234 L6.99753942,17.6688509 L5.61909087,17.6688509 L5.61909087,16.3043234 Z M8.37598796,16.3043234 L9.75443651,16.3043234 L9.75443651,17.6688509 L8.37598796,17.6688509 L8.37598796,16.3043234 Z M11.132928,16.3043234 L12.5113765,16.3043234 L12.5113765,17.6688509 L11.132928,17.6688509 L11.132928,16.3043234 Z M13.889868,16.3043234 L15.2683165,16.3043234 L15.2683165,17.6688509 L13.889868,17.6688509 L13.889868,16.3043234 Z M16.646808,13.575226 L18.0252566,13.575226 L18.0252566,14.9397535 L16.646808,14.9397535 L16.646808,13.575226 Z M18.5766532,20.4661556 L5.06769428,20.4661556 C3.92755175,20.4661556 3,19.5479713 3,18.4193431 L3,6.41133992 C3,5.28275429 3.92755175,4.36452747 5.06769428,4.36452747 L5.89478917,4.36452747 L5.89478917,3 L7.27323771,3 L7.27323771,4.36452747 L16.3711097,4.36452747 L16.3711097,3 L17.7495583,3 L17.7495583,4.36452747 L18.5766532,4.36452747 C19.5342132,4.36456997 20.3418177,5.01222012 20.5759166,5.88824769 L19.0187063,5.88824769 C18.8989737,5.78893283 18.7447252,5.72909744 18.5766532,5.72909744 L17.7495583,5.72909744 L17.7495583,7.09362491 L16.3711097,7.09362491 L16.3711097,5.72909744 L7.27323771,5.72909744 L7.27323771,7.09362491 L5.89478917,7.09362491 L5.89478917,5.72909744 L5.06769428,5.72909744 C4.68763246,5.72909744 4.37844854,6.03515888 4.37844854,6.41133992 L4.37844854,8.04882388 L17.0675678,8.04882388 L17.0695855,9.41335135 L4.37844854,9.41335135 L4.37844854,18.4193431 C4.37844854,18.7955667 4.68763246,19.1016281 5.06769428,19.1016281 L18.5766532,19.1016281 C18.956715,19.1015856 19.2658989,18.7955242 19.2658989,18.4193431 L19.2658989,11.7117019 L20.6443474,11.7187564 L20.6443474,18.4193431 C20.6443474,19.5479288 19.7167957,20.4661556 18.5766532,20.4661556 Z" id="calendar" stroke-opacity="0" stroke="#000000" stroke-width="0.681818182" fill="#0070C9"></path>
    </g>
</svg>