<?xml version="1.0" encoding="UTF-8"?>
<svg width="24px" height="24px" viewBox="0 0 24 24" version="1.1" xmlns="http://www.w3.org/2000/svg" xmlns:xlink="http://www.w3.org/1999/xlink">
    <!-- Generator: Sketch 51.2 (57519) - http://www.bohemiancoding.com/sketch -->
    <title>Artboard</title>
    <desc>Created with Sketch.</desc>
    <defs></defs>
    <g id="Artboard" stroke="none" stroke-width="1" fill="none" fill-rule="evenodd">
        <path d="M21.4000083,5.98820101 L21.4000083,5.71601053 C21.4000083,5.50519404 21.2284527,5.33379367 21.0174453,5.33379367 L6.78609902,5.33379367 C6.57509157,5.33379367 6.40353595,5.50519404 6.40353595,5.71601053 L6.40353595,5.98820101 L6.40353595,7.51706845 L17.6524553,7.51706845 C18.2853282,7.51706845 18.8001446,8.03141887 18.8001446,8.66371904 L18.8001446,15.4050079 L21.0174453,15.4050079 C21.2284527,15.4050079 21.4000083,15.2336075 21.4000083,15.022791 L21.4000083,5.98820101 Z M21.2494942,4.41383995 C21.9030057,4.41383995 22.4346106,4.94496383 22.4346106,5.59788391 L22.4346106,15.0702355 C22.4346106,15.7231556 21.9030057,16.2542795 21.2494942,16.2542795 L18.8002535,16.2542795 L18.8002535,18.2108574 C18.8002535,18.8637775 18.2686485,19.3949014 17.615137,19.3949014 L3.39373957,19.3949014 C2.74022807,19.3949014 2.20862311,18.8637775 2.20862311,18.2108574 L2.20862311,8.73850578 C2.20862311,8.0855857 2.74022807,7.55446183 3.39373957,7.55446183 L5.36893366,7.55446183 L5.36893366,5.59788391 C5.36893366,4.94496383 5.90053862,4.41383995 6.55405012,4.41383995 L21.2494942,4.41383995 Z M17.8627662,18.1178408 L17.8627662,8.83152236 C17.8627662,8.61810632 17.6890951,8.44459243 17.4754858,8.44459243 L3.53339082,8.44459243 C3.31978147,8.44459243 3.14611041,8.61810632 3.14611041,8.83152236 L3.14611041,18.1178408 C3.14611041,18.3312569 3.31978147,18.5047708 3.53339082,18.5047708 L17.4754858,18.5047708 C17.6890951,18.5047708 17.8627662,18.3312569 17.8627662,18.1178408 Z" id="Shape" fill="#FFFFFF" fill-rule="nonzero" transform="translate(12.321617, 11.904371) scale(1, -1) rotate(-90.000000) translate(-12.321617, -11.904371) "></path>
    </g>
</svg>