<?xml version="1.0" encoding="UTF-8"?>
<svg width="24px" height="24px" viewBox="0 0 24 24" version="1.1" xmlns="http://www.w3.org/2000/svg" xmlns:xlink="http://www.w3.org/1999/xlink">
    <!-- Generator: Sketch 51.1 (57501) - http://www.bohemiancoding.com/sketch -->
    <title>icon-external</title>
    <desc>Created with Sketch.</desc>
    <defs></defs>
    <g id="icon-external" stroke="none" stroke-width="1" fill="none" fill-rule="evenodd">
        <g id="external" fill-rule="nonzero">
            <rect id="shape" x="0" y="0" width="24" height="24"></rect>
            <path d="M19.5457969,5.48248828 L10.6757344,14.3525508 C10.5337734,14.4945117 10.3476914,14.5655273 10.1615742,14.5655273 C9.97549219,14.5655273 9.789375,14.4945469 9.64741406,14.3525508 C9.36345703,14.0685938 9.36345703,13.6082227 9.64741406,13.3242656 L18.5175074,4.45420313 L14.7576211,4.45420313 C14.3560313,4.45420313 14.0305195,4.12865625 14.0305195,3.72710156 C14.0305195,3.32554688 14.3560313,3 14.7576211,3 L20.2728984,3 C20.6744883,3 21,3.32554688 21,3.72710156 L21,9.24237891 C21,9.64393359 20.6744883,9.96948047 20.2728984,9.96948047 C19.8713086,9.96948047 19.5457969,9.64393359 19.5457969,9.24237891 L19.5457969,5.48248828 Z M17.5153125,12.1920938 C17.9169023,12.1920938 18.2424141,12.5176055 18.2424141,12.9191953 L18.2424141,18.4344727 C18.2423789,19.849125 17.0914688,21 15.6768164,21 L5.56552734,21 C4.15091016,21 3,19.849125 3,18.4344727 L3,8.32314844 C3,6.90853125 4.15091016,5.75762109 5.56552734,5.75762109 L11.0808047,5.75762109 C11.4823594,5.75762109 11.8079063,6.08316797 11.8079063,6.48472266 C11.8079063,6.88627734 11.4823594,7.21182422 11.0808047,7.21182422 L5.56552734,7.21182422 C4.95275391,7.21182422 4.45420313,7.710375 4.45420313,8.32314844 L4.45420313,18.4344727 C4.45420313,19.0472461 4.95275391,19.5457969 5.56552734,19.5457969 L15.6768516,19.5457969 C16.2896602,19.5457969 16.7882109,19.0472461 16.7882109,18.4344727 L16.7882109,12.9191953 C16.7882109,12.5176055 17.1137227,12.1920938 17.5153125,12.1920938 Z" fill="#0070C9"></path>
        </g>
    </g>
</svg>