<?xml version="1.0" encoding="UTF-8"?>
<svg width="48px" height="48px" viewBox="0 0 48 48" version="1.1" xmlns="http://www.w3.org/2000/svg" xmlns:xlink="http://www.w3.org/1999/xlink">
    <!-- Generator: Sketch 51.1 (57501) - http://www.bohemiancoding.com/sketch -->
    <title>icon-plus</title>
    <desc>Created with Sketch.</desc>
    <defs></defs>
    <g id="icon-plus" stroke="none" stroke-width="1" fill="none" fill-rule="evenodd">
        <rect id="shape" fill-rule="nonzero" x="0" y="0" width="48" height="48"></rect>
        <path d="M35.6901138,15.5840757 C35.4968979,15.3910686 35.2351013,15.2827173 34.9619269,15.2827173 L25.7116775,15.28397 L25.7130345,6.029754 C25.7130345,5.75657952 25.6046833,5.49467858 25.4115718,5.3014627 C25.2183559,5.10835121 24.956455,5 24.6832805,5 L16.3128889,5.00125262 C15.7445148,5.00146138 15.2837612,5.46211059 15.2836568,6.03048469 L15.2819867,15.2854313 L6.03079784,15.2868927 C5.46231936,15.2868927 5.00156577,15.7477507 5.00146138,16.3161248 L5,24.6900655 C5,24.9633444 5.10835121,25.2251409 5.30156709,25.4183568 C5.49467858,25.6114683 5.75657952,25.7198195 6.029754,25.7198195 L15.2804209,25.7185669 L15.2789595,34.9725741 C15.2789595,35.2457486 15.3875195,35.5076495 15.5805266,35.7008654 C15.7737425,35.8939769 16.0356434,36.0025368 16.3088179,36.0023281 L24.6791051,36.0006579 C25.2474792,36.0006579 25.7082328,35.5398 25.7083372,34.9714259 L25.7097986,25.7168967 L34.9613005,25.7152266 C35.5296746,25.7152266 35.9904282,25.2543686 35.9905326,24.6859945 L35.9917852,16.3122626 C35.9915765,16.0390881 35.8832253,15.7772915 35.6901138,15.5840757 Z" id="Shape" fill="#FFFFFF" fill-rule="nonzero"></path>
    </g>
</svg>