<?xml version="1.0" encoding="UTF-8"?>
<svg width="24px" height="24px" viewBox="0 0 24 24" version="1.1" xmlns="http://www.w3.org/2000/svg" xmlns:xlink="http://www.w3.org/1999/xlink">
    <!-- Generator: Sketch 51.1 (57501) - http://www.bohemiancoding.com/sketch -->
    <title>icon-map</title>
    <desc>Created with Sketch.</desc>
    <defs></defs>
    <g id="icon-map" stroke="none" stroke-width="1" fill="none" fill-rule="evenodd">
        <g id="map" fill-rule="nonzero">
            <rect id="shape" x="0" y="0" width="24" height="24"></rect>
            <path d="M21.5905305,18.8499923 L15.2817417,16.6323395 C15.4652132,16.3858727 15.6510433,16.1319915 15.8373379,15.8714994 C18.1360562,12.6570588 19.3017112,10.1643772 19.3017112,8.46277778 C19.3017112,4.34775471 16.0261342,1 11.9999464,1 C7.9737587,1 4.69821736,4.34775471 4.69821736,8.4628143 C4.69821736,10.1644137 5.86383664,12.6570588 8.16259067,15.8715359 C8.35045775,16.1341465 8.53782452,16.390073 8.72268973,16.638366 L2.41000561,18.8497732 C2.16485283,18.9356786 2.00014304,19.1712611 2.00000009,19.4361726 C1.99985715,19.7010477 2.16438826,19.9368493 2.40946956,20.0230104 L11.7864562,23.3192291 C11.8504247,23.3416551 11.9171448,23.3529412 11.9837935,23.3529412 C12.0502992,23.3529412 12.1168407,23.3417647 12.1805947,23.3194483 L21.5899945,20.0232295 C21.8351472,19.9373972 21.999857,19.7017416 22,19.4368666 C22.0000714,19.171955 21.8355761,18.9361534 21.5905305,18.8499923 Z M18.0880263,8.4628143 C18.0880263,11.1488562 14.0418261,16.4095406 11.999875,18.7844675 C9.95792382,16.410198 5.91183084,11.1506459 5.91183084,8.4628143 C5.91186657,5.03182045 8.64292573,2.24044214 11.9999464,2.24044214 C15.3569671,2.24044214 18.0880263,5.03178393 18.0880263,8.4628143 Z M11.9841151,22.0769973 L4.47539993,19.4374875 L9.51261059,17.672847 C10.6267692,19.0967878 11.5022791,20.0768839 11.5523461,20.1328028 C11.6673463,20.2610765 11.8296617,20.3341253 11.9999464,20.3341253 C12.1701597,20.3341253 12.3325466,20.2610765 12.4475468,20.1328028 C12.4977209,20.0767743 13.3756967,19.0937928 14.4922854,17.6664917 L19.5245644,19.4354787 L11.9841151,22.0769973 Z M11.9999464,11.2872837 C10.2801246,11.2872837 8.88096694,9.85727989 8.88096694,8.09954248 C8.88096694,6.34180507 10.2801246,4.91180123 11.9999464,4.91180123 C13.7197682,4.91180123 15.1189259,6.34180507 15.1189259,8.09954248 C15.1189259,9.85727989 13.7197682,11.2872837 11.9999464,11.2872837 Z M13.905241,8.09957901 C13.905241,7.02587082 13.0505655,6.15227989 11.9999464,6.15227989 C10.9493274,6.15227989 10.0946519,7.02590734 10.0946519,8.09957901 C10.0946519,9.17336025 10.9493274,10.0468781 11.9999464,10.0468781 C13.0505655,10.0468781 13.905241,9.17332372 13.905241,8.09957901 Z" fill="#0070C9"></path>
        </g>
    </g>
</svg>