<?xml version="1.0" encoding="UTF-8"?>
<svg width="48px" height="48px" viewBox="0 0 48 48" version="1.1" xmlns="http://www.w3.org/2000/svg" xmlns:xlink="http://www.w3.org/1999/xlink">
    <!-- Generator: Sketch 51.1 (57501) - http://www.bohemiancoding.com/sketch -->
    <title>icon-star</title>
    <desc>Created with Sketch.</desc>
    <defs></defs>
    <g id="icon-star" stroke="none" stroke-width="1" fill="none" fill-rule="evenodd">
        <rect id="shape" fill-rule="nonzero" x="0" y="0" width="48" height="48"></rect>
        <path d="M35.3272492,19.4594539 C35.9374343,18.8647872 36.1528303,17.9920301 35.8896375,17.1807261 C35.625824,16.369422 34.9386675,15.7902738 34.0944643,15.6673677 L26.588505,14.5767317 C26.2688251,14.5301764 25.9925969,14.3296782 25.8498272,14.0397937 L22.4941196,7.2389923 C22.1173319,6.47486428 21.3525831,6 20.5003104,6 C19.6486583,6 18.8839096,6.47486428 18.5071219,7.2389923 L15.1507935,14.0404144 C15.0080239,14.3302989 14.7311749,14.5307972 14.411495,14.5773525 L6.90553569,15.6679885 C6.06195326,15.7902738 5.37417597,16.3700427 5.11036248,17.1813468 C4.84716973,17.9926509 5.06256568,18.865408 5.67275077,19.4600746 L11.1035842,24.7537251 C11.3351194,24.9796736 11.4412655,25.3049401 11.3866406,25.6227577 L10.1054381,33.0976802 C9.99184315,33.7556621 10.1644082,34.3956426 10.5902342,34.9003023 C11.2519405,35.6867768 12.4071332,35.9263815 13.3307908,35.4409647 L20.0434475,31.9114506 C20.3240209,31.7643358 20.6772206,31.7655773 20.9571733,31.9114506 L27.6704507,35.4409647 C27.9969586,35.612909 28.3451924,35.6998123 28.7045995,35.6998123 C29.3607192,35.6998123 29.9826983,35.4080656 30.4103865,34.9003023 C30.8368333,34.3956426 31.0087776,33.7544206 30.8951826,33.0976802 L29.6133594,25.6227577 C29.5587345,25.3043193 29.6648806,24.9796736 29.8964158,24.7537251 L35.3272492,19.4594539 Z" id="Star" fill="#FFFFFF" fill-rule="nonzero"></path>
    </g>
</svg>