<?xml version="1.0" encoding="UTF-8"?>
<svg width="48px" height="48px" viewBox="0 0 48 48" version="1.1" xmlns="http://www.w3.org/2000/svg" xmlns:xlink="http://www.w3.org/1999/xlink">
    <!-- Generator: Sketch 51.1 (57501) - http://www.bohemiancoding.com/sketch -->
    <title>icon-warning</title>
    <desc>Created with Sketch.</desc>
    <defs></defs>
    <g id="icon-warning" stroke="none" stroke-width="1" fill="none" fill-rule="evenodd">
        <rect id="shape" fill-rule="nonzero" x="0" y="0" width="48" height="48"></rect>
        <path d="M21.2793594,35 C21.7815859,35 22.2167812,35.183625 22.5841328,35.5509766 C22.9511797,35.9184297 23.1353125,36.3531172 23.1353125,36.85575 L23.1353125,43.3509766 C23.1353125,43.8536094 22.9514844,44.2887031 22.5848437,44.6564609 C22.2170859,45.0231016 21.7818906,45.2070312 21.2799687,45.2070312 L13.8560547,45.2070312 C13.3532187,45.2070312 12.9186328,45.0231016 12.550875,44.6564609 C12.1837266,44.2886016 12,43.8535078 12,43.3509766 L12,36.85575 C12,36.3530156 12.1837266,35.9183281 12.550875,35.5509766 C12.9183281,35.1839297 13.3533203,35 13.8560547,35 L21.2793594,35 Z M23.3682402,4.550875 C23.7259433,4.91863281 23.8958574,5.35342187 23.875748,5.85595312 L23.0645683,28.1250547 C23.0443574,28.6276875 22.8470214,29.0631875 22.4702245,29.4298281 C22.092412,29.7975859 21.652748,29.9814141 21.1508261,29.9814141 L13.726912,29.9814141 C13.2241777,29.9814141 12.784412,29.7975859 12.4075136,29.4298281 C12.030412,29.0630859 11.8324667,28.6275859 11.8131699,28.1250547 L11.0014824,5.85595312 C10.9821855,5.35342187 11.151287,4.91822656 11.5088886,4.550875 C11.8666933,4.18403125 12.2965058,4 12.799037,4 L22.0776855,4 C22.580623,4 23.0106386,4.18403125 23.3682402,4.550875 Z" id="warning" fill="#FFFFFF" fill-rule="nonzero"></path>
    </g>
</svg>